<?xml version="1.0" encoding="UTF-8" standalone="no"?>
<!-- Generator: Gravit.io -->
<svg xmlns="http://www.w3.org/2000/svg" xmlns:xlink="http://www.w3.org/1999/xlink" style="isolation:isolate" viewBox="0 0 512 512" width="512pt" height="512pt"><defs><clipPath id="_clipPath_d7ug1TYFQYEUuH6R0zIWyvUfeALUS9OL"><rect width="512" height="512"/></clipPath></defs><g clip-path="url(#_clipPath_d7ug1TYFQYEUuH6R0zIWyvUfeALUS9OL)"><rect width="512" height="512" style="fill:rgb(0,0,0)" fill-opacity="0"/><g><path d=" M 376.068 155.101 C 379.225 157.067 382.152 159.347 384.235 162.332 C 387.155 166.525 388.009 172.449 384.959 176.546 C 382.723 179.542 378.954 181.006 375.35 182.219 C 336.892 195.182 177.053 196.752 139.684 185.925 C 136.03 184.866 132.191 183.572 129.82 180.673 C 126.591 176.711 127.165 170.753 129.895 166.443 C 131.785 163.455 134.5 161.104 137.475 159.058 C 137.162 157.8 136.838 156.328 136.5 154.546 C 120.009 152.403 107.951 136.153 101.659 124.005 C 91.291 103.983 100.292 77.491 112.916 59.918 C 130.078 36.035 160.568 21.26 190.45 11.317 C 218.663 1.93 251.815 -1.65 283.065 0.699 C 293.427 1.478 303.58 2.909 313.274 4.997 C 331.12 8.843 349.715 13.684 365.03 22.7 C 381.273 32.267 395.485 45.293 406.297 59.367 C 420.644 78.042 425.676 105.056 414.808 126.044 C 409.207 136.843 396.907 147.478 383.07 150.053 C 382.158 150.222 379.828 150.39 376.754 150.342 C 376.538 152.191 376.305 153.675 376.068 155.101 Z " fill-rule="evenodd" fill="rgb(51,51,51)"/><path d=" M 340.452 95.715 C 340.452 95.715 320.638 81.018 319.442 90.534 C 318.245 100.043 303.741 128.893 303.741 128.893 L 355.575 220.35 C 355.575 220.35 366.535 149.33 361.386 127.546 C 356.237 105.761 340.452 95.715 340.452 95.715 Z " fill="rgb(255,244,146)"/><path d=" M 308.138 128.789 L 353.294 208.457 C 356.107 187.629 361.256 144.068 357.539 128.34 C 352.817 108.367 338.368 98.836 338.221 98.74 L 338.006 98.593 C 332.073 94.199 324.834 90.674 322.891 91.02 C 322.202 99.763 311.458 122.063 308.138 128.789 Z  M 355.576 224.03 C 354.133 224.03 352.787 223.287 352.094 222.072 L 300.257 130.615 C 299.676 129.592 299.645 128.377 300.172 127.332 C 304.132 119.45 314.61 97.415 315.526 90.107 C 316.011 86.258 318.501 84.757 319.944 84.198 C 326.608 81.636 338.083 89.261 342.805 92.757 C 344.524 93.89 360.005 104.628 365.235 126.751 C 370.476 148.933 359.928 217.951 359.478 220.873 C 359.232 222.455 357.931 223.699 356.249 223.979 L 355.576 224.03 Z " fill="rgb(51,51,51)"/><path d=" M 317.898 117.088 C 310.184 135.7 294.458 157.345 262.981 157.779 L 157.007 223.927 C 157.007 223.927 141.786 179.291 148.858 137.452 C 153.394 110.619 174.719 89.769 209.082 81.739 C 230.866 76.654 271.595 78.015 298.494 79.693 C 313.648 80.643 323.378 103.855 317.898 117.088 Z " fill="rgb(255,244,146)"/><path d=" M 254.427 81.865 C 237.754 81.865 221.195 82.704 210.036 85.309 C 178.029 92.786 157.149 112.002 152.747 138.026 C 147.221 170.732 155.745 205.602 159.312 218.061 L 260.791 154.717 C 261.423 154.327 262.162 154.106 262.924 154.099 C 292.361 153.694 307.068 133.021 314.221 115.756 L 314.221 115.756 C 316.961 109.154 315.226 98.902 310.1 91.395 C 308.161 88.554 304.039 83.734 298.233 83.373 C 286.681 82.645 270.5 81.865 254.427 81.865 Z  M 157.007 227.607 L 155.706 227.401 C 154.536 227.018 153.628 226.142 153.251 225.046 C 152.62 223.184 137.832 179.092 144.966 136.878 C 149.88 107.792 172.903 86.398 208.128 78.177 C 229.923 73.07 269.442 74.196 298.756 76.028 C 305.629 76.455 312.016 80.503 316.746 87.436 C 323.214 96.922 325.2 109.655 321.572 118.412 L 321.572 118.412 C 313.637 137.562 297.264 160.45 264.22 161.437 L 159.196 226.981 C 158.539 227.393 157.777 227.607 157.007 227.607 Z " fill="rgb(51,51,51)"/><path d=" M 343.64 203.875 C 343.64 203.875 358.979 183.163 367.857 188.715 C 376.735 194.273 367.814 242.179 357.788 248.281 C 347.763 254.391 328.663 244.52 328.663 244.52 L 343.64 203.875 Z " fill="rgb(221,163,133)"/><path d=" M 334.564 243.338 C 340.471 245.859 351.23 249.268 356.679 245.962 C 361.146 243.241 367.653 223.948 368.596 206.143 C 369.131 196.1 367.403 192.539 366.691 192.016 C 366.356 191.809 365.91 191.623 365.002 191.775 C 360.257 192.56 352.542 200.364 348.367 205.874 L 334.564 243.338 Z  M 350.618 254.234 C 340.286 254.234 329.396 248.82 327.8 247.994 L 325.086 246.596 L 341.471 202.513 C 342.668 200.894 353.45 186.678 363.528 185.011 C 366.372 184.543 369.054 185.025 371.289 186.423 C 373.602 187.869 376.661 191.169 376.577 203.064 C 376.458 218.727 370.262 246.086 361.181 251.617 C 358.048 253.518 354.37 254.234 350.618 254.234 Z " fill="rgb(51,51,51)"/><path d=" M 166.078 203.875 C 166.078 203.875 150.739 183.163 141.861 188.715 C 132.984 194.273 141.905 242.179 151.93 248.281 C 161.954 254.391 181.055 244.52 181.055 244.52 L 166.078 203.875 Z " fill="rgb(221,163,133)"/><path d=" M 146.384 191.72 L 145.295 192.023 C 144.595 192.539 142.867 196.1 143.402 206.15 C 144.348 223.955 150.855 243.241 155.323 245.962 C 160.799 249.289 171.55 245.872 177.434 243.345 L 163.631 205.874 C 159.456 200.364 151.74 192.56 146.996 191.775 L 146.384 191.72 Z  M 161.384 254.234 C 157.632 254.234 153.953 253.525 150.821 251.617 C 141.74 246.086 135.541 218.734 135.421 203.064 C 135.333 191.169 138.396 187.869 140.708 186.423 C 142.94 185.025 145.634 184.536 148.47 185.011 C 158.548 186.678 169.33 200.894 170.527 202.513 L 170.969 203.326 L 186.911 246.596 L 184.199 247.994 C 182.601 248.82 171.712 254.234 161.384 254.234 Z " fill="rgb(51,51,51)"/><path d=" M 460.285 427.816 C 455.881 400.864 434.162 378.554 404.412 370.502 C 357.689 357.856 289.483 341.111 256 341.111 C 222.517 341.111 154.31 357.856 107.587 370.502 C 77.837 378.554 56.119 400.864 51.714 427.816 L 42.099 479.117 C 40.255 494.863 54.396 508.556 72.51 508.556 L 439.489 508.556 C 457.604 508.556 471.745 494.863 469.901 479.117 L 460.285 427.816 Z " fill="rgb(26,119,201)"/><path d=" M 460.285 427.809 C 456.592 405.217 440.627 385.993 418.055 375.592 C 426.891 385.242 432.945 396.869 435.027 409.605 L 444.643 460.912 C 446.385 475.797 428.514 490.276 411.838 491.66 C 410.871 491.743 405.522 454.576 405.522 454.576 C 388.895 484.786 361.588 493.513 274.472 494.133 C 224.011 494.491 139.13 493.747 101.79 492.514 C 99.707 492.445 104.379 453.949 103.895 455.636 C 93.059 493.499 47.251 490.351 47.251 490.351 C 45.937 490.351 44.698 490.131 43.431 489.986 C 47.357 500.669 58.77 508.556 72.51 508.556 L 439.49 508.556 C 457.604 508.556 471.745 494.863 469.901 479.117 L 460.285 427.809 Z " fill="rgb(20,92,156)"/><path d=" M 256 344.555 C 223.611 344.555 158.048 360.453 108.752 373.787 C 80.642 381.399 59.785 402.792 55.618 428.298 L 46.021 479.468 C 45.251 486.005 47.703 492.555 52.743 497.432 C 57.781 502.316 64.988 505.112 72.511 505.112 L 439.489 505.112 C 447.012 505.112 454.219 502.316 459.256 497.432 C 464.297 492.555 466.748 486.005 465.979 479.468 L 456.37 428.229 C 452.18 402.758 431.335 381.392 403.248 373.787 C 353.951 360.453 288.389 344.555 256 344.555 Z  M 439.489 512 L 72.511 512 C 62.76 512 53.424 508.37 46.89 502.047 C 40.36 495.724 37.186 487.238 38.179 478.766 L 47.795 427.465 C 52.408 399.197 75.412 375.599 106.42 367.21 C 156.236 353.73 222.626 337.667 256 337.667 C 289.374 337.667 355.764 353.73 405.58 367.21 C 436.588 375.599 459.591 399.197 464.185 427.327 L 464.205 427.465 L 473.821 478.766 C 474.814 487.238 471.639 495.724 465.109 502.047 C 458.575 508.37 449.24 512 439.489 512 Z " fill="rgb(51,51,51)"/><path d=" M 320.907 351.152 C 276.874 355.092 232.843 355.092 188.812 351.152 C 196.297 327.974 196.297 304.796 188.812 281.612 C 232.843 277.672 276.874 277.672 320.907 281.612 C 313.421 304.796 313.421 327.974 320.907 351.152 Z " fill="rgb(221,163,133)"/><path d=" M 194.988 348.523 C 235.508 351.884 276.512 351.884 317.009 348.523 C 311.021 327.515 311.021 306.265 317.009 285.251 C 276.497 281.882 235.5 281.882 194.988 285.251 C 200.976 306.265 200.976 327.515 194.988 348.523 Z  M 255.999 358.152 C 233.804 358.152 211.604 357.167 189.563 355.204 L 184.841 354.777 L 186.169 350.665 C 193.403 328.252 193.403 305.522 186.169 283.108 L 184.841 279.003 L 189.563 278.583 C 233.65 274.629 278.356 274.629 322.435 278.583 L 327.156 279.003 L 325.829 283.108 C 318.595 305.522 318.595 328.252 325.829 350.665 L 327.156 354.777 L 322.435 355.204 C 300.393 357.167 278.198 358.152 255.999 358.152 Z " fill="rgb(51,51,51)"/><path d=" M 350.339 206.196 C 350.339 263.407 307.591 309.783 254.859 309.783 C 202.127 309.783 159.379 263.407 159.379 206.196 C 159.379 178.658 169.286 153.628 185.445 135.072 C 202.852 115.083 217.2 134.335 254.859 134.335 C 297.546 134.335 305.095 114.208 322.373 132.95 C 339.652 151.699 350.339 177.598 350.339 206.196 Z " fill="rgb(221,163,133)"/><path d=" M 322.373 132.95 C 316.791 126.896 312.216 124.926 307.152 124.995 C 318.971 142.242 326.051 163.533 326.051 186.676 C 326.051 243.88 283.303 290.263 230.571 290.263 C 214.704 290.263 199.776 285.999 186.61 278.567 C 203.945 297.805 228.1 309.783 254.859 309.783 C 307.591 309.783 350.339 263.407 350.339 206.196 C 350.339 177.591 339.652 151.699 322.373 132.95 Z " fill="rgb(193,130,99)"/><path d=" M 204.502 129.942 C 199.134 129.942 194.72 131.926 189.722 137.664 C 173.429 156.371 164.459 180.892 164.459 206.701 C 164.459 261.921 205.525 306.844 256 306.844 C 306.474 306.844 347.54 261.921 347.54 206.701 C 347.54 179.817 337.917 154.573 320.447 135.618 C 312.246 126.732 307.872 128.096 296.143 131.706 C 287.146 134.481 274.82 138.283 256 138.283 C 240.835 138.283 229.318 135.28 220.067 132.87 C 213.737 131.223 208.811 129.942 204.502 129.942 Z  M 256 313.732 C 201.177 313.732 156.578 265.716 156.578 206.701 C 156.578 179.39 166.121 153.389 183.449 133.489 C 195.759 119.349 207.472 122.4 222.318 126.271 C 231.534 128.675 241.981 131.396 256 131.396 C 273.47 131.396 284.591 127.965 293.522 125.21 C 305.932 121.381 314.901 118.612 326.58 131.299 C 345.177 151.474 355.421 178.247 355.421 206.701 C 355.421 265.716 310.823 313.732 256 313.732 Z " fill="rgb(51,51,51)"/><path d=" M 99.4 512 L 99.103 511.993 C 96.933 511.848 95.306 510.195 95.467 508.301 L 99.965 455.381 C 100.127 453.487 101.974 451.993 104.186 452.199 C 106.357 452.344 107.985 453.997 107.823 455.891 L 103.325 508.811 C 103.171 510.622 101.443 512 99.4 512 Z " fill="rgb(51,51,51)"/><path d=" M 412.598 512 C 410.62 512 408.919 510.698 408.688 508.942 L 401.608 454.968 C 401.358 453.074 402.913 451.373 405.071 451.152 C 407.219 450.966 409.185 452.296 409.435 454.183 L 416.516 508.163 C 416.765 510.058 415.21 511.759 413.052 511.979 L 412.598 512 Z " fill="rgb(51,51,51)"/><path d=" M 191.084 307.788 L 174.504 343.729 L 189.953 395.161 L 253.096 357.89 L 191.084 307.788 Z " fill="rgb(26,119,201)"/><path d=" M 178.65 343.956 L 192.352 389.588 L 246.771 357.463 L 192.603 313.711 L 178.65 343.956 Z  M 189.952 398.605 L 188.562 398.384 C 187.369 397.992 186.465 397.117 186.142 396.035 L 170.696 344.603 C 170.48 343.887 170.534 343.129 170.85 342.448 L 187.427 306.507 C 187.912 305.446 188.955 304.674 190.221 304.426 C 191.479 304.185 192.807 304.495 193.757 305.26 L 255.772 355.362 C 256.657 356.072 257.119 357.105 257.026 358.152 C 256.934 359.199 256.299 360.156 255.302 360.742 L 192.156 398.012 C 191.498 398.405 190.725 398.605 189.952 398.605 Z " fill="rgb(51,51,51)"/><path d=" M 320.915 307.788 L 337.495 343.729 L 322.047 395.161 L 258.903 357.89 L 320.915 307.788 Z " fill="rgb(26,119,201)"/><path d=" M 265.23 357.463 L 319.645 389.588 L 333.352 343.956 L 319.395 313.711 L 265.23 357.463 Z  M 322.047 398.605 C 321.269 398.605 320.5 398.405 319.842 398.012 L 256.699 360.742 C 255.703 360.156 255.067 359.199 254.975 358.152 C 254.883 357.105 255.345 356.072 256.23 355.362 L 318.241 305.26 C 319.191 304.495 320.526 304.185 321.777 304.426 C 323.043 304.674 324.086 305.446 324.571 306.507 L 341.152 342.448 C 341.467 343.129 341.522 343.887 341.306 344.603 L 325.856 396.035 C 325.533 397.117 324.628 397.992 323.435 398.384 L 322.047 398.605 Z " fill="rgb(51,51,51)"/><path d=" M 256.271 357.551 C 245.404 407.461 221.692 458.307 223.487 508.217 C 245.239 508.217 266.991 508.217 288.744 508.217 C 290.643 458.307 267.157 407.461 256.271 357.551 Z " fill="rgb(7,76,138)"/><path d=" M 225.283 504.773 L 288.208 504.773 C 288.758 472.703 277.314 439.682 266.234 407.709 C 263.082 398.61 259.867 389.338 256.915 380.047 C 253.906 389.497 250.61 398.94 247.382 408.198 C 236.283 440.006 224.813 472.861 225.283 504.773 Z  M 294.519 511.661 L 218.96 511.661 C 215.469 511.661 212.623 510.166 212.542 508.292 C 211.145 474.618 223.152 440.206 234.766 406.93 C 240.481 390.544 246.397 373.593 250.56 357.082 C 250.992 355.374 253.706 354.107 256.921 354.107 C 260.13 354.107 262.85 355.374 263.282 357.082 C 267.406 373.427 273.229 390.22 278.85 406.448 C 290.445 439.882 302.428 474.452 300.936 508.299 C 300.854 510.166 298.004 511.661 294.519 511.661 Z " fill="rgb(51,51,51)"/><path d=" M 235.5 372.238 C 232.847 375.565 232.827 379.973 235.482 383.3 C 240.782 389.94 249.86 400.051 256.02 400.051 C 262.252 400.051 271.472 389.705 276.743 383.065 C 279.295 379.856 279.383 375.633 276.977 372.334 L 266.569 358.076 C 262.78 352.883 251.037 352.759 246.965 357.863 L 235.5 372.238 Z " fill="rgb(7,76,138)"/><path d=" M 238.733 374.208 C 237.028 376.343 237.02 379.201 238.714 381.33 C 248.337 393.39 254.117 396.607 256.019 396.607 C 257.942 396.607 263.787 393.342 273.507 381.102 C 275.151 379.029 275.212 376.322 273.657 374.187 L 263.248 359.929 C 262.233 358.538 259.747 357.608 256.919 357.553 C 253.918 357.573 251.343 358.393 250.196 359.833 L 238.733 374.208 Z  M 256.019 403.495 C 253.736 403.495 246.794 403.495 232.249 385.27 C 228.678 380.793 228.686 374.759 232.268 370.268 L 243.732 355.893 C 246.429 352.511 251.582 350.734 257.08 350.665 C 262.637 350.768 267.424 352.841 269.89 356.23 L 280.299 370.488 C 283.57 374.965 283.443 380.675 279.98 385.029 C 265.319 403.495 258.319 403.495 256.019 403.495 Z " fill="rgb(51,51,51)"/><path d=" M 206.204 469.24 L 206.204 508.542 L 127.633 508.542 L 127.633 469.24 C 127.633 460.224 136.46 452.957 147.335 452.957 L 186.502 452.957 C 197.378 452.957 206.204 460.224 206.204 469.24 Z " fill="rgb(20,92,156)"/><path d=" M 131.573 505.098 L 202.266 505.098 L 202.266 469.24 C 202.266 462.159 195.197 456.408 186.504 456.408 L 147.334 456.408 C 138.642 456.408 131.573 462.159 131.573 469.24 L 131.573 505.098 Z  M 210.146 511.986 L 123.692 511.986 L 123.692 469.24 C 123.692 458.364 134.297 449.52 147.334 449.52 L 186.504 449.52 C 199.54 449.52 210.146 458.364 210.146 469.24 L 210.146 511.986 Z " fill="rgb(51,51,51)"/><path d=" M 191.319 485.461 L 142.549 485.461 C 134.31 485.461 127.631 479.62 127.631 472.422 L 127.631 466.01 C 127.631 458.805 134.31 452.971 142.549 452.971 L 191.319 452.971 C 199.558 452.971 206.237 458.805 206.237 466.01 L 206.237 472.422 C 206.237 479.62 199.558 485.461 191.319 485.461 Z " fill="rgb(26,119,201)"/><path d=" M 142.548 456.408 C 136.494 456.408 131.573 460.713 131.573 466.003 L 131.573 472.422 C 131.573 477.705 136.494 482.01 142.548 482.01 L 191.318 482.01 C 197.371 482.01 202.296 477.705 202.296 472.422 L 202.296 466.003 C 202.296 460.713 197.371 456.408 191.318 456.408 L 142.548 456.408 Z  M 191.318 488.898 L 142.548 488.898 C 132.151 488.898 123.692 481.507 123.692 472.422 L 123.692 466.003 C 123.692 456.917 132.151 449.52 142.548 449.52 L 191.318 449.52 C 201.715 449.52 210.177 456.917 210.177 466.003 L 210.177 472.422 C 210.177 481.507 201.715 488.898 191.318 488.898 Z " fill="rgb(51,51,51)"/><path d=" M 173.797 473.559 C 173.797 476.679 170.724 479.207 166.934 479.207 C 163.143 479.207 160.07 476.679 160.07 473.559 C 160.07 470.438 163.143 467.911 166.934 467.911 C 170.724 467.911 173.797 470.438 173.797 473.559 Z " fill="rgb(51,51,51)"/><g><path d=" M 286.149 170.19 C 267.302 167.547 248.285 167.547 229.438 170.19 C 229.354 169.232 229.27 168.274 229.189 167.315 C 248.201 164.65 267.386 164.65 286.398 167.315 C 286.316 168.274 286.233 169.232 286.149 170.19 Z " fill="rgb(243,200,76)"/><path d=" M 163.237 196.391 L 145.42 194.372 L 145.42 179.127 L 163.237 176.888 L 163.237 196.391 Z " fill="rgb(243,200,76)"/><path d=" M 352.35 196.391 L 368.074 194.372 L 368.074 179.127 L 352.35 176.888 L 352.35 196.391 Z " fill="rgb(243,200,76)"/><path d=" M 272.494 187.341 C 264.301 179.025 251.285 179.025 243.093 187.341 C 242.176 186.349 241.257 185.355 240.341 184.364 C 250.065 174.488 265.522 174.488 275.249 184.364 C 274.33 185.355 273.411 186.349 272.494 187.341 Z " fill="rgb(243,200,76)"/><path d=" M 229.605 163.256 C 226.264 182.08 213.366 232.219 165.68 232.12 C 165.054 231.264 164.518 230.507 164.093 229.883 C 160.587 224.92 149.569 194.126 165.256 174.176 C 180.943 154.225 226.154 162.264 226.154 162.264 C 227.353 162.576 228.515 162.905 229.605 163.256 Z " fill="rgb(25,49,66)"/><path d=" M 249.331 191.091 C 248.666 195.919 240.437 228.032 211.224 242.145 C 185.001 254.816 171.291 239.692 165.68 232.12 C 213.366 232.219 226.264 182.08 229.605 163.256 C 255.309 171.295 249.866 187.197 249.331 191.091 Z " fill="rgb(13,35,49)"/><path d=" M 285.982 163.256 C 289.323 182.08 302.221 232.219 349.907 232.12 C 350.535 231.264 351.069 230.507 351.493 229.883 C 354.999 224.92 366.017 194.126 350.331 174.176 C 334.644 154.225 289.433 162.264 289.433 162.264 C 288.234 162.576 287.071 162.905 285.982 163.256 Z " fill="rgb(25,49,66)"/><path d=" M 266.255 191.091 C 266.92 195.919 275.15 228.032 304.363 242.145 C 330.586 254.816 344.296 239.692 349.907 232.12 C 302.221 232.219 289.323 182.08 285.982 163.256 C 260.278 171.295 265.721 187.197 266.255 191.091 Z " fill="rgb(13,35,49)"/></g><path d=" M 354.046 140.977 C 351.353 146.463 371.594 145.934 374.666 145.384 C 387.63 143.056 399.154 133.443 404.401 123.682 C 414.582 104.71 409.868 80.291 396.427 63.411 C 386.297 50.688 372.982 38.914 357.764 30.266 C 343.416 22.116 325.995 17.74 309.276 14.263 C 300.194 12.377 290.682 11.083 280.974 10.379 C 251.697 8.255 220.637 11.491 194.205 19.976 C 166.21 28.964 137.644 42.32 121.565 63.909 C 109.738 79.793 101.306 103.74 111.019 121.839 C 118.367 135.526 134.108 154.975 155.799 148.402 C 161.43 146.698 166.832 144.074 172.43 142.209 C 180.614 139.479 189.491 137.649 197.969 135.601 C 219.819 130.316 243.6 127.499 266.334 127.289 C 286.72 127.102 308.537 127.975 328.212 132.666 C 336.102 134.539 343.959 136.859 351.165 140.13 C 355.047 141.89 361.001 144.637 363.353 147.738 C 362.614 147.633 361.88 147.52 361.15 147.393" fill="rgb(26,119,201)"/><path d=" M 363.354 147.737 C 362.615 147.637 361.881 147.519 361.147 147.392 L 358.364 144.876 C 359.089 145.029 359.87 145.16 360.688 145.269 C 361.769 146.056 362.704 146.881 363.354 147.737 Z " fill="rgb(15,37,58)"/><path d=" M 193.53 33.552 C 228.722 22.253 272.127 20.261 308.596 27.839 C 325.32 31.311 342.737 35.692 357.09 43.841 C 372.308 52.489 385.622 64.264 395.748 76.986 C 403.286 86.455 408.08 98.291 409.039 110.214 C 408.183 114.874 406.686 119.421 404.399 123.683 C 399.157 133.444 387.629 143.053 374.665 145.381 C 372.976 145.687 366.092 145.975 360.686 145.267 C 359.082 144.097 357.15 143.014 355.252 142.066 L 358.362 144.874 C 355.411 144.241 353.456 143.158 353.933 141.415 C 352.955 140.948 352.006 140.511 351.164 140.127 C 343.957 136.855 336.1 134.541 328.211 132.663 C 308.536 127.976 286.718 127.103 266.333 127.286 C 243.599 127.5 219.818 130.313 197.963 135.598 C 189.494 137.65 180.613 139.48 172.428 142.21 C 166.83 144.075 161.433 146.695 155.802 148.403 C 134.107 154.976 118.37 135.528 111.018 121.84 C 108.731 117.577 107.487 112.987 107.015 108.262 C 109.072 97.111 114.469 86.105 120.891 77.484 C 136.964 55.896 165.535 42.54 193.53 33.552 Z " fill="rgb(20,92,156)"/><path d=" M 137.473 160.2 C 140.026 156.304 144.189 153.605 148.337 151.19 C 180.794 132.326 219.077 124.426 256.828 118.827 L 257.141 120.377 C 294.284 124.421 331.918 130.828 364.473 147.936 C 368.733 150.172 373.022 152.701 375.758 156.483 C 378.494 160.274 379.293 165.628 376.436 169.332 C 374.341 172.04 370.81 173.363 367.433 174.459 C 331.403 186.177 181.654 187.597 146.644 177.809 C 143.221 176.853 139.624 175.682 137.403 173.062 C 134.377 169.481 134.915 164.095 137.473 160.2 Z " fill="rgb(51,51,51)"/><path d=" M 256.83 118.828 L 257.139 120.374 L 257.574 120.422 L 257.995 120.47 L 258.028 120.475 L 258.378 120.514 L 258.509 120.527 L 258.767 120.558 L 258.921 120.571 L 259.052 120.584 C 273.901 122.235 288.815 124.301 303.434 127.284 C 307.105 131.59 310.744 135.923 314.359 140.277 C 324.363 152.344 337.729 164.905 345.544 178.855 C 332.524 180.632 316.122 181.982 298.308 182.89 C 289.759 168.832 278.1 155.624 268.55 143.024 C 262.587 135.163 256.405 127.472 250.119 119.846 C 251.377 119.649 252.635 119.462 253.889 119.269 C 254.871 119.117 255.853 118.972 256.83 118.828 Z " fill="rgb(93,93,93)"/><path d=" M 239.27 121.639 C 246.435 130.225 253.445 138.925 260.198 147.817 C 268.654 158.968 279.195 170.878 287.365 183.39 C 284.877 183.487 282.366 183.578 279.845 183.657 C 263.678 163.706 248.544 143.044 232.83 122.792 C 234.976 122.394 237.118 122.006 239.27 121.639 Z " fill="rgb(93,93,93)"/><path d=" M 284.233 87.991 C 315.829 93.665 347.963 102.911 372.301 122.141 C 370.44 127.661 369.271 147.088 367.405 152.612 C 361.54 147.813 354.529 144.423 347.444 141.392 C 327.456 132.841 305.55 127.259 283.859 123.931 C 276.573 122.809 248.41 123.398 241.343 124.477 C 214.994 128.491 186.517 134.889 165.07 145.17 C 158.134 148.49 151.288 152.167 145.661 157.203 C 143.538 151.765 140.718 132.417 138.59 126.98 C 162.769 106.094 195.665 97.486 227.921 90.223 C 242.044 87.044 280.024 87.236 284.233 87.991 Z " fill="rgb(51,51,51)"/><path d=" M 351.657 124.91 C 352.883 120.857 354.884 115.935 355.637 111.188 C 361.474 114.455 367.095 118.027 372.301 122.141 C 371.506 124.5 370.842 129.405 370.187 134.676 C 369.705 134.418 369.223 134.156 368.751 133.907 C 363.148 130.946 357.265 128.374 351.386 125.871 L 351.657 124.91 Z " fill="rgb(206,207,216)"/><path d=" M 304.123 92.163 C 313.037 94.29 321.871 96.775 330.411 99.836 C 329.457 105.536 327.801 111.096 325.996 116.638 C 317.817 114.179 309.45 112.214 300.985 110.655 C 301.939 104.475 302.991 98.312 304.123 92.163 Z " fill="rgb(206,207,216)"/><path d=" M 233.67 107.385 C 232.445 101.537 231.248 95.654 230.644 89.723 C 240.129 88.129 256.207 87.561 268.395 87.53 C 268.222 89.326 268.026 91.125 267.941 92.92 C 267.726 97.58 267.572 102.24 267.399 106.905 C 256.151 106.415 244.885 106.726 233.768 107.861 L 233.67 107.385 Z " fill="rgb(206,207,216)"/><path d=" M 171.046 117.591 C 170.457 115.141 170.106 111.512 169.386 107.965 C 178.038 104.105 187.115 100.903 196.422 98.169 C 196.674 99.279 196.932 100.392 197.212 101.493 C 198.265 105.673 199.345 109.848 200.416 114.023 C 190.922 116.482 181.545 119.535 172.379 123.046 C 171.934 121.225 171.481 119.395 171.046 117.591 Z " fill="rgb(206,207,216)"/><path d=" M 148.493 119.502 C 149.587 123.677 150.523 127.896 151.552 132.089 C 148.053 133.771 144.546 135.439 141.155 137.243 C 140.253 132.867 139.378 128.98 138.593 126.979 C 141.74 124.263 145.074 121.821 148.493 119.502 Z " fill="rgb(206,207,216)"/><path d=" M 269.664 109.398 C 278.292 109.804 286.958 110.617 295.671 111.975 C 296.565 112.11 297.444 112.285 298.332 112.433 C 297.626 116.993 296.915 121.553 296.195 126.108 C 292.084 125.309 287.969 124.562 283.858 123.929 C 281.15 123.509 275.566 123.33 269.248 123.326 C 269.355 118.688 269.496 114.041 269.664 109.398 Z " fill="rgb(206,207,216)"/><path d=" M 203.463 116.534 L 203.314 115.957 C 212.812 113.612 222.371 111.812 232.01 110.686 C 233.072 115.612 234.171 120.539 235.125 125.491 C 225.921 127.007 216.549 128.819 207.392 130.999 C 205.909 126.221 204.693 121.377 203.463 116.534 Z " fill="rgb(206,207,216)"/><path d=" M 159.345 148.048 C 158.499 146.315 157.699 144.576 157.091 142.851 C 155.987 139.759 155.089 136.619 154.275 133.465 C 159.775 130.932 165.345 128.526 171.009 126.316 C 172.318 131.19 173.581 136.068 174.951 140.912 C 171.528 142.253 168.212 143.659 165.069 145.166 C 163.143 146.092 161.23 147.048 159.345 148.048 Z " fill="rgb(206,207,216)"/><path d=" M 327.37 119.404 C 334.549 121.636 341.629 124.143 348.574 127.121 C 347.293 131.511 346.156 135.97 345.118 140.451 C 338.028 137.516 330.709 134.956 323.259 132.72 C 324.419 128.235 325.901 123.824 327.37 119.404 Z " fill="rgb(206,207,216)"/><g><path d=" M 279.972 44.58 C 278.054 36.385 283.372 27.477 283.372 27.477 C 267.889 27.591 260.5 21.884 258.612 20.16 L 258.614 19.633 L 258.336 19.914 L 258.059 19.633 L 258.062 20.16 C 256.174 21.884 248.784 27.591 233.302 27.477 C 233.302 27.477 238.62 36.385 236.702 44.58 C 234.784 52.767 225.195 53.216 229.51 62.326 C 235.408 74.769 258.336 79.395 258.336 79.395 C 258.336 79.395 281.265 74.769 287.164 62.326 C 291.479 53.216 281.889 52.767 279.972 44.58 Z " fill="rgb(255,153,0)"/><path d=" M 240.175 31.438 C 241.462 35.272 242.478 40.39 241.301 45.411 C 240.249 49.905 237.486 52.675 235.467 54.706 C 232.906 57.274 232.51 57.67 233.816 60.431 C 237.628 68.468 251.955 73.287 258.337 74.774 C 264.718 73.287 279.05 68.468 282.862 60.431 C 284.168 57.67 283.772 57.274 281.206 54.706 C 279.193 52.675 276.429 49.905 275.377 45.411 C 274.195 40.39 275.211 35.272 276.498 31.438 C 267.675 30.515 261.826 27.789 258.337 25.511 C 254.852 27.798 249.008 30.515 240.175 31.438 Z  M 258.337 83.682 L 257.343 83.585 C 256.309 83.374 231.991 78.317 225.205 63.992 C 221.384 55.929 225.711 51.585 228.575 48.718 C 230.267 47.012 231.601 45.675 232.106 43.53 C 233.601 37.145 229.232 29.583 229.191 29.512 C 228.373 28.141 228.395 26.47 229.25 25.124 C 230.111 23.779 232.028 22.829 233.338 22.97 C 245.416 22.838 252.194 18.978 254.222 17.368 C 254.746 16.612 255.486 16.005 256.373 15.68 L 257.928 15.346 L 260.231 15.583 C 261.335 16.005 262.254 16.726 262.796 17.632 C 265.155 19.391 271.616 22.996 283.335 22.97 C 284.802 23.269 286.554 23.779 287.414 25.124 C 288.269 26.461 288.297 28.132 287.492 29.495 C 287.446 29.574 283.069 37.11 284.572 43.53 C 285.078 45.675 286.412 47.021 288.103 48.718 C 290.964 51.585 295.289 55.929 291.469 63.992 C 284.683 78.317 260.364 83.374 259.33 83.585 L 258.337 83.682 Z " fill="rgb(243,197,70)"/></g><g><path d=" M 378.318 457.317 C 376.4 449.122 381.719 440.214 381.719 440.214 C 366.236 440.328 358.847 434.621 356.959 432.897 L 356.961 432.37 L 356.683 432.651 L 356.405 432.37 L 356.408 432.897 C 354.52 434.621 347.131 440.328 331.649 440.214 C 331.649 440.214 336.967 449.122 335.049 457.317 C 333.131 465.504 323.541 465.953 327.857 475.063 C 333.754 487.506 356.683 492.132 356.683 492.132 C 356.683 492.132 379.612 487.506 385.511 475.063 C 389.826 465.953 380.236 465.504 378.318 457.317 Z " fill="rgb(255,153,0)"/><path d=" M 338.522 444.175 C 339.809 448.009 340.825 453.127 339.648 458.148 C 338.595 462.642 335.833 465.412 333.814 467.443 C 331.253 470.011 330.857 470.407 332.163 473.168 C 335.975 481.205 350.302 486.024 356.683 487.51 C 363.065 486.024 377.397 481.205 381.208 473.168 C 382.515 470.407 382.119 470.011 379.553 467.443 C 377.54 465.412 374.776 462.642 373.723 458.148 C 372.542 453.127 373.558 448.009 374.845 444.175 C 366.022 443.252 360.173 440.526 356.683 438.248 C 353.198 440.534 347.355 443.252 338.522 444.175 Z  M 356.683 496.418 L 355.69 496.322 C 354.656 496.111 330.338 491.054 323.552 476.729 C 319.731 468.666 324.057 464.322 326.922 461.455 C 328.614 459.749 329.947 458.412 330.453 456.266 C 331.947 449.882 327.579 442.32 327.538 442.249 C 326.719 440.877 326.742 439.207 327.597 437.861 C 328.458 436.516 330.375 435.566 331.685 435.707 C 343.763 435.575 350.541 431.714 352.568 430.105 C 353.093 429.349 353.833 428.742 354.72 428.417 L 356.275 428.083 L 358.578 428.32 C 359.682 428.742 360.601 429.463 361.143 430.369 C 363.502 432.128 369.962 435.733 381.682 435.707 C 383.149 436.006 384.901 436.516 385.76 437.861 C 386.615 439.198 386.644 440.869 385.838 442.232 C 385.792 442.311 381.416 449.847 382.918 456.266 C 383.425 458.412 384.758 459.758 386.45 461.455 C 389.31 464.322 393.636 468.666 389.816 476.729 C 383.03 491.054 358.711 496.111 357.677 496.322 L 356.683 496.418 Z " fill="rgb(243,197,70)"/></g><path d=" M 265.382 192.143 C 263.362 200.592 263.764 208.782 265.876 217.153 C 267.33 222.951 269.647 228.486 268.503 234.55 C 267.109 241.938 260.286 248.11 252.014 245.493 C 249.854 244.807 250.05 241.431 252.584 241.574 C 270.655 242.583 261.262 221.274 259.849 212.428 C 258.692 205.164 259.997 198.304 262.636 191.438 C 263.254 189.837 265.788 190.455 265.382 192.143 Z " fill="rgb(76,31,22)"/><path d=" M 289.526 260.137 C 274.969 277.522 240.253 277.072 222.182 265.147 C 219.696 263.504 221.881 259.803 224.604 261.273 C 242.18 270.734 272.615 273.42 287.883 258.606 C 288.947 257.575 290.409 259.071 289.526 260.137 Z " fill="rgb(76,31,22)"/></g></g></svg>