<?xml version="1.0" encoding="UTF-8" standalone="no"?><!-- Generator: Gravit.io --><svg xmlns="http://www.w3.org/2000/svg" xmlns:xlink="http://www.w3.org/1999/xlink" style="isolation:isolate" viewBox="0 0 512 512" width="512pt" height="512pt"><defs><clipPath id="_clipPath_u5ZBjysk8zrpflbCc1dBdJqIiDKAWViz"><rect width="512" height="512"/></clipPath></defs><g clip-path="url(#_clipPath_u5ZBjysk8zrpflbCc1dBdJqIiDKAWViz)"><rect width="512" height="512" style="fill:rgb(0,0,0)" fill-opacity="0"/><g><path d="M 77.496 17 L 436.363 18.4 C 468.852 18.527 495.126 45.007 495 77.496 L 493.6 436.363 C 493.473 468.852 466.993 495.126 434.504 495 L 75.637 493.6 C 43.148 493.473 16.874 466.993 17 434.504 L 18.4 75.637 C 18.527 43.148 45.007 16.874 77.496 17 Z" style="stroke:none;fill:#171717;stroke-miterlimit:10;"/><path d=" M 430.095 289.843 L 429.361 371.741 C 429.121 398.348 407.325 419.757 380.716 419.518 L 380.716 419.518 L 298.818 418.783 L 298.818 418.783 L 299.343 360.319 L 346.383 360.741 L 346.383 360.741 C 359.963 360.863 371.088 349.937 371.21 336.356 L 371.632 289.317 L 430.095 289.843 L 430.095 289.843 L 430.095 289.843 Z  M 430.094 218.865 L 429.36 136.967 C 429.12 110.359 407.323 88.95 380.716 89.189 L 380.716 89.189 L 298.818 89.924 L 298.818 89.924 L 299.342 148.388 L 346.382 147.966 L 346.382 147.966 C 359.962 147.844 371.087 158.77 371.209 172.352 L 371.631 219.39 L 430.094 218.865 L 430.094 218.865 L 430.094 218.865 Z " fill-rule="evenodd" fill="rgb(61,244,61)"/><path d=" M 95.992 293.135 L 96.727 375.034 C 96.967 401.641 118.763 423.049 145.371 422.811 L 145.371 422.811 L 227.269 422.076 L 227.269 422.076 L 226.744 363.612 L 179.705 364.034 L 179.705 364.034 C 166.125 364.156 155 353.23 154.878 339.649 L 154.456 292.61 L 95.992 293.135 L 95.992 293.135 L 95.992 293.135 Z  M 81.905 176.945 C 81.905 152.849 101.468 133.286 125.563 133.286 C 149.659 133.286 169.221 152.849 169.221 176.945 C 169.221 201.04 149.659 220.603 125.563 220.603 C 101.468 220.603 81.905 201.04 81.905 176.945 Z " fill-rule="evenodd" fill="rgb(255,255,255)"/></g></g></svg>